<svg id="visual" viewBox="0 0 540 960" preserveAspectRatio="none" height="100vh" width="100vw" xmlns="http://www.w3.org/2000/svg" xmlns:xlink="http://www.w3.org/1999/xlink" version="1.1"><rect x="0" y="0" width="540" height="960" fill="#8ECAE6"></rect><defs><linearGradient id="grad1_0" x1="0%" y1="0%" x2="100%" y2="100%"><stop offset="30%" stop-color="#8ecae6" stop-opacity="1"></stop><stop offset="70%" stop-color="#8ecae6" stop-opacity="1"></stop></linearGradient></defs><defs><linearGradient id="grad2_0" x1="0%" y1="0%" x2="100%" y2="100%"><stop offset="30%" stop-color="#8ecae6" stop-opacity="1"></stop><stop offset="70%" stop-color="#8ecae6" stop-opacity="1"></stop></linearGradient></defs><g transform="translate(540, 0)"><path d="M0 473C-64.5 478.1 -129 483.2 -195.2 471.2C-261.3 459.2 -329.1 430.2 -381.8 381.8C-434.6 333.5 -472.4 265.9 -480.4 199C-488.4 132.1 -466.7 66.1 -445 0L0 0Z" fill="#219EBC"></path></g><g transform="translate(0, 960)"><path d="M0 -521C77.8 -528.1 155.6 -535.3 206.6 -498.9C257.7 -462.5 281.9 -382.6 328.1 -328.1C374.3 -273.6 442.4 -244.5 468.4 -194C494.4 -143.6 478.2 -71.8 462 0L0 0Z" fill="#219EBC"></path></g></svg>
