<svg id="visual" viewBox="0 0 540 960" preserveAspectRatio="none" height="100vh" width="100vw" xmlns="http://www.w3.org/2000/svg" xmlns:xlink="http://www.w3.org/1999/xlink" version="1.1"><rect x="0" y="0" width="540" height="960" fill="#8ECAE6"></rect><g transform="translate(280.5610403786576 452.64558444193096)"><path d="M189.7 -276.8C240 -224.7 270.7 -161.3 310.2 -89.2C349.7 -17 397.9 64 384.8 131.5C371.8 199.1 297.6 253.3 223.2 311.3C148.9 369.3 74.5 431.1 6.5 422.2C-61.5 413.3 -123 333.7 -155.1 262C-187.2 190.2 -189.9 126.4 -244.8 56.2C-299.6 -13.9 -406.6 -90.4 -408.1 -147.1C-409.6 -203.7 -305.6 -240.6 -220 -281.3C-134.4 -322 -67.2 -366.5 1.3 -368.3C69.8 -370 139.5 -329 189.7 -276.8" fill="#219EBC"></path></g></svg>
