<svg id="visual" viewBox="0 0 540 960" preserveAspectRatio="none" height="100vh" width="100vw" xmlns="http://www.w3.org/2000/svg" xmlns:xlink="http://www.w3.org/1999/xlink" version="1.1"><rect x="0" y="0" width="540" height="960" fill="#040D11"></rect><g transform="translate(161.422364828265 498.9490274682969)"><path d="M361 -495.9C457.6 -426.8 518.4 -307.5 539.9 -188C561.4 -68.5 543.7 51.2 493.8 146.7C443.9 242.3 361.8 313.7 274.2 385.2C186.5 456.7 93.3 528.4 1 527C-91.3 525.7 -182.6 451.3 -243.9 371.3C-305.3 291.2 -336.7 205.4 -331.1 129.5C-325.6 53.7 -283.2 -12.3 -259.4 -83.9C-235.5 -155.4 -230.3 -232.6 -190.2 -320.1C-150.1 -407.6 -75 -505.3 28.6 -544.7C132.3 -584 264.5 -565.1 361 -495.9" fill="#061D23"></path></g></svg>
