<svg id="visual" viewBox="0 0 900 600" width="100%" height="100%" xmlns="http://www.w3.org/2000/svg" xmlns:xlink="http://www.w3.org/1999/xlink" version="1.1"><rect x="0" y="0" width="900" height="600" fill="#8ECAE6"></rect><defs><linearGradient id="grad1_0" x1="33.3%" y1="0%" x2="100%" y2="100%"><stop offset="20%" stop-color="#8ecae6" stop-opacity="1"></stop><stop offset="80%" stop-color="#8ecae6" stop-opacity="1"></stop></linearGradient></defs><defs><linearGradient id="grad2_0" x1="0%" y1="0%" x2="66.7%" y2="100%"><stop offset="20%" stop-color="#8ecae6" stop-opacity="1"></stop><stop offset="80%" stop-color="#8ecae6" stop-opacity="1"></stop></linearGradient></defs><g transform="translate(900, 0)"><path d="M0 486.7C-58.2 454.7 -116.3 422.7 -161.1 389C-205.9 355.2 -237.3 319.6 -289.2 289.2C-341.1 258.8 -413.4 233.6 -449.7 186.3C-486 138.9 -486.4 69.5 -486.7 0L0 0Z" fill="#219EBC"></path></g><g transform="translate(0, 600)"><path d="M0 -486.7C49.2 -449.3 98.4 -411.9 163.8 -395.4C229.2 -379 310.7 -383.5 344.2 -344.2C377.7 -304.8 363 -221.6 378.8 -156.9C394.5 -92.2 440.6 -46.1 486.7 0L0 0Z" fill="#219EBC"></path></g></svg>
