<svg id="visual" viewBox="0 0 900 675" width="100%" height="100%" xmlns="http://www.w3.org/2000/svg" xmlns:xlink="http://www.w3.org/1999/xlink" version="1.1"><rect x="0" y="0" width="900" height="675" fill="#8ECAE6"></rect><defs><linearGradient id="grad1_0" x1="25%" y1="0%" x2="100%" y2="100%"><stop offset="23.333333333333336%" stop-color="#8ecae6" stop-opacity="1"></stop><stop offset="76.66666666666666%" stop-color="#8ecae6" stop-opacity="1"></stop></linearGradient></defs><defs><linearGradient id="grad2_0" x1="0%" y1="0%" x2="75%" y2="100%"><stop offset="23.333333333333336%" stop-color="#8ecae6" stop-opacity="1"></stop><stop offset="76.66666666666666%" stop-color="#8ecae6" stop-opacity="1"></stop></linearGradient></defs><g transform="translate(900, 0)"><path d="M0 506.3C-71.9 505.6 -143.9 505 -193.7 467.7C-243.6 430.4 -271.5 356.3 -301.9 301.9C-332.4 247.5 -365.5 212.8 -400 165.7C-434.5 118.7 -470.4 59.3 -506.2 0L0 0Z" fill="#219EBC"></path></g><g transform="translate(0, 675)"><path d="M0 -506.2C51.1 -459.9 102.2 -413.5 162.6 -392.6C223 -371.8 292.7 -376.5 347.9 -347.9C403.1 -319.3 443.7 -257.3 467.7 -193.7C491.7 -130.2 499 -65.1 506.3 0L0 0Z" fill="#219EBC"></path></g></svg>
