<svg id="visual" viewBox="0 0 900 675" width="100%" height="100%" xmlns="http://www.w3.org/2000/svg" xmlns:xlink="http://www.w3.org/1999/xlink" version="1.1"><rect x="0" y="0" width="900" height="675" fill="#8ECAE6"></rect><defs><linearGradient id="grad1_0" x1="25%" y1="0%" x2="100%" y2="100%"><stop offset="23.333333333333336%" stop-color="#8ecae6" stop-opacity="1"></stop><stop offset="76.66666666666666%" stop-color="#8ecae6" stop-opacity="1"></stop></linearGradient></defs><defs><linearGradient id="grad2_0" x1="0%" y1="0%" x2="75%" y2="100%"><stop offset="23.333333333333336%" stop-color="#8ecae6" stop-opacity="1"></stop><stop offset="76.66666666666666%" stop-color="#8ecae6" stop-opacity="1"></stop></linearGradient></defs><g transform="translate(900, 0)"><path d="M0 562.5C-81.5 563.4 -163 564.4 -215.3 519.7C-267.6 475 -290.7 384.6 -323.9 323.9C-357 263.1 -400.2 232 -441.6 182.9C-483.1 133.9 -522.8 66.9 -562.5 0L0 0Z" fill="#219EBC"></path></g><g transform="translate(0, 675)"><path d="M0 -562.5C78.5 -559.7 157 -556.8 215.3 -519.7C273.5 -482.5 311.6 -411.1 354.3 -354.3C396.9 -297.4 444 -255.2 479.5 -198.6C515 -142 538.7 -71 562.5 0L0 0Z" fill="#219EBC"></path></g></svg>
