<svg id="visual" viewBox="0 0 960 540" preserveAspectRatio="none" height="100vh" width="100vw" xmlns="http://www.w3.org/2000/svg" xmlns:xlink="http://www.w3.org/1999/xlink" version="1.1"><rect x="0" y="0" width="960" height="540" fill="#8ECAE6"></rect><defs><linearGradient id="grad1_0" x1="43.8%" y1="0%" x2="100%" y2="100%"><stop offset="14.444444444444446%" stop-color="#8ecae6" stop-opacity="1"></stop><stop offset="85.55555555555554%" stop-color="#8ecae6" stop-opacity="1"></stop></linearGradient></defs><defs><linearGradient id="grad2_0" x1="0%" y1="0%" x2="56.3%" y2="100%"><stop offset="14.444444444444446%" stop-color="#8ecae6" stop-opacity="1"></stop><stop offset="85.55555555555554%" stop-color="#8ecae6" stop-opacity="1"></stop></linearGradient></defs><g transform="translate(960, 0)"><path d="M0 429C-68.1 451.5 -136.3 474 -186 449C-235.7 424 -267 351.5 -294.9 294.9C-322.7 238.2 -347.2 197.3 -364 150.8C-380.8 104.3 -389.9 52.1 -399 0L0 0Z" fill="#219EBC"></path></g><g transform="translate(0, 540)"><path d="M0 -388C67 -425.6 134 -463.3 184.1 -444.4C234.2 -425.5 267.3 -350.1 293.4 -293.4C319.6 -236.8 338.6 -198.9 369.6 -153.1C400.5 -107.3 443.2 -53.6 486 0L0 0Z" fill="#219EBC"></path></g></svg>
