<svg id="visual" viewBox="0 0 960 540"  preserveAspectRatio="none" height="100vh" width="100vw" xmlns="http://www.w3.org/2000/svg" xmlns:xlink="http://www.w3.org/1999/xlink" version="1.1"><rect x="0" y="0" width="960" height="540" fill="#8ECAE6"></rect><defs><linearGradient id="grad1_0" x1="43.8%" y1="0%" x2="100%" y2="100%"><stop offset="14.444444444444446%" stop-color="#8ecae6" stop-opacity="1"></stop><stop offset="85.55555555555554%" stop-color="#8ecae6" stop-opacity="1"></stop></linearGradient></defs><defs><linearGradient id="grad2_0" x1="0%" y1="0%" x2="56.3%" y2="100%"><stop offset="14.444444444444446%" stop-color="#8ecae6" stop-opacity="1"></stop><stop offset="85.55555555555554%" stop-color="#8ecae6" stop-opacity="1"></stop></linearGradient></defs><g transform="translate(960, 0)"><path d="M0 513C-66.3 493.4 -132.6 473.7 -181.8 438.8C-231 403.9 -263.2 353.8 -314 314C-364.7 274.1 -434.1 244.6 -468.4 194C-502.7 143.4 -501.8 71.7 -501 0L0 0Z" fill="#219EBC"></path></g><g transform="translate(0, 540)"><path d="M0 -433C46.3 -409.7 92.6 -386.4 158.4 -382.5C224.3 -378.5 309.8 -393.9 362.7 -362.7C415.7 -331.6 436.1 -253.8 448.1 -185.6C460 -117.4 463.5 -58.7 467 0L0 0Z" fill="#219EBC"></path></g></svg>
