<svg id="visual" viewBox="0 0 900 900" preserveAspectRatio="none" height="100vh" width="100vw" xmlns="http://www.w3.org/2000/svg" xmlns:xlink="http://www.w3.org/1999/xlink" version="1.1"><rect x="0" y="0" width="900" height="900" fill="#8ECAE6"></rect><defs><linearGradient id="grad1_0" x1="0%" y1="0%" x2="100%" y2="100%"><stop offset="30%" stop-color="#8ecae6" stop-opacity="1"></stop><stop offset="70%" stop-color="#8ecae6" stop-opacity="1"></stop></linearGradient></defs><defs><linearGradient id="grad2_0" x1="0%" y1="0%" x2="100%" y2="100%"><stop offset="30%" stop-color="#8ecae6" stop-opacity="1"></stop><stop offset="70%" stop-color="#8ecae6" stop-opacity="1"></stop></linearGradient></defs><g transform="translate(900, 0)"><path d="M0 594C-81.2 587.7 -162.4 581.3 -226.5 546.9C-290.7 512.6 -337.8 450.1 -396 396C-454.2 341.8 -523.5 296 -558.6 231.4C-593.6 166.7 -594.3 83.4 -595 0L0 0Z" fill="#219EBC"></path></g><g transform="translate(0, 900)"><path d="M0 -557C79.1 -569 158.2 -580.9 231.4 -558.6C304.6 -536.2 371.9 -479.4 413 -413C454 -346.5 468.8 -270.2 482.3 -199.8C495.7 -129.3 507.9 -64.7 520 0L0 0Z" fill="#219EBC"></path></g></svg>
