<svg id="visual" viewBox="0 0 900 900"  preserveAspectRatio="none" height="100vh" width="100vw" xmlns="http://www.w3.org/2000/svg" xmlns:xlink="http://www.w3.org/1999/xlink" version="1.1"><rect x="0" y="0" width="900" height="900" fill="#8ECAE6"></rect><defs><linearGradient id="grad1_0" x1="0%" y1="0%" x2="100%" y2="100%"><stop offset="30%" stop-color="#8ecae6" stop-opacity="1"></stop><stop offset="70%" stop-color="#8ecae6" stop-opacity="1"></stop></linearGradient></defs><defs><linearGradient id="grad2_0" x1="0%" y1="0%" x2="100%" y2="100%"><stop offset="30%" stop-color="#8ecae6" stop-opacity="1"></stop><stop offset="70%" stop-color="#8ecae6" stop-opacity="1"></stop></linearGradient></defs><g transform="translate(900, 0)"><path d="M0 538C-75.4 530.7 -150.8 523.4 -202.4 488.7C-254.1 454 -281.9 391.9 -350 350C-418.2 308.1 -526.7 286.3 -558.6 231.4C-590.4 176.4 -545.7 88.2 -501 0L0 0Z" fill="#219EBC"></path></g><g transform="translate(0, 900)"><path d="M0 -494C89.6 -542.2 179.3 -590.4 231.4 -558.6C283.4 -526.7 298 -414.9 350 -350C402.1 -285.1 491.7 -267.1 522.9 -216.6C554.2 -166.1 527.1 -83 500 0L0 0Z" fill="#219EBC"></path></g></svg>
