<svg id="visual" viewBox="0 0 960 540" preserveAspectRatio="none" height="100vh" width="100vw" xmlns="http://www.w3.org/2000/svg" xmlns:xlink="http://www.w3.org/1999/xlink" version="1.1"><rect x="0" y="0" width="960" height="540" fill="#040D11"></rect><defs><linearGradient id="grad1_0" x1="43.8%" y1="0%" x2="100%" y2="100%"><stop offset="14.444444444444446%" stop-color="#040d11" stop-opacity="1"></stop><stop offset="85.55555555555554%" stop-color="#040d11" stop-opacity="1"></stop></linearGradient></defs><defs><linearGradient id="grad2_0" x1="0%" y1="0%" x2="56.3%" y2="100%"><stop offset="14.444444444444446%" stop-color="#040d11" stop-opacity="1"></stop><stop offset="85.55555555555554%" stop-color="#040d11" stop-opacity="1"></stop></linearGradient></defs><g transform="translate(960, 0)"><path d="M0 513C-56.1 467.9 -112.2 422.8 -160.3 387.1C-208.5 351.5 -248.6 325.3 -292.7 292.7C-336.9 260.2 -385.2 221.3 -413.9 171.4C-442.6 121.6 -451.8 60.8 -461 0L0 0Z" fill="#061D23"></path></g><g transform="translate(0, 540)"><path d="M0 -513C62.5 -493.6 124.9 -474.2 186 -449C247.1 -423.9 306.8 -393 345.1 -345.1C383.4 -297.1 400.2 -232.2 414.8 -171.8C429.4 -111.5 441.7 -55.7 454 0L0 0Z" fill="#061D23"></path></g></svg>
